<svg xmlns="http://www.w3.org/2000/svg" width="150" height="45" viewBox="0 0 150 45">
  <g id="header-form" transform="translate(-750 -20)">
    <rect id="長方形_4" data-name="長方形 4" width="150" height="45" transform="translate(750 20)" fill="#33aba4"/>
    <path id="envelope-open-text-solid" d="M17.5,28.513a5.071,5.071,0,0,1-3.2-1.034L0,17.151V31.719A3.282,3.282,0,0,0,3.281,35H31.719A3.27,3.27,0,0,0,35,31.78V17.151L20.706,27.48A5.525,5.525,0,0,1,17.5,28.513Zm16.242-17.37c-.6-.479-1.176-.923-2.023-1.565V6.561A3.282,3.282,0,0,0,28.438,3.28h-5.3c-.214-.154-.4-.291-.624-.444C21.369,1.991,19.093-.026,17.5,0c-1.586-.026-3.869,1.991-5.018,2.837-.222.154-.41.291-.624.444h-5.3A3.282,3.282,0,0,0,3.281,6.562V9.578c-.846.641-1.418,1.086-2.025,1.564A3.264,3.264,0,0,0,0,13.727v.726l6.563,4.742V6.562H28.438V19.188L35,14.446v-.72A3.251,3.251,0,0,0,33.742,11.143Zm-21.711,6.3H22.969a1.083,1.083,0,0,0,1.094-1.032,1.094,1.094,0,0,0-1.094-1.094H12.031a1.094,1.094,0,0,0-1.094,1.094A1.046,1.046,0,0,0,12.031,17.438Zm0-4.375H22.969a1.094,1.094,0,0,0,1.094-1.094,1.043,1.043,0,0,0-1.094-1.032H12.031a1.083,1.083,0,0,0-1.094,1.032A1.059,1.059,0,0,0,12.031,13.063Z" transform="translate(760 25)" fill="#fdfdfd"/>
    <text id="お問い合わせ" transform="translate(807 48)" fill="#fff" font-size="14" font-family="HiraMinProN-W3, Hiragino Mincho ProN"><tspan x="0" y="0">お問い合わせ</tspan></text>
  </g>
</svg>
